<mxfile host="app.diagrams.net" modified="2021-12-02T09:07:29.859Z" agent="5.0 (Windows)" etag="39Gr3LxGi6lvcZmXSpyY" version="15.8.8" type="github">
  <diagram id="C5RBs43oDa-KdzZeNtuy" name="Page-1">
    <mxGraphModel dx="3239" dy="1989" grid="1" gridSize="10" guides="1" tooltips="1" connect="1" arrows="1" fold="1" page="1" pageScale="1" pageWidth="827" pageHeight="1169" math="0" shadow="0">
      <root>
        <mxCell id="WIyWlLk6GJQsqaUBKTNV-0" />
        <mxCell id="WIyWlLk6GJQsqaUBKTNV-1" parent="WIyWlLk6GJQsqaUBKTNV-0" />
        <mxCell id="WIyWlLk6GJQsqaUBKTNV-2" value="" style="rounded=0;html=1;jettySize=auto;orthogonalLoop=1;fontSize=10;endArrow=block;endFill=0;endSize=8;strokeWidth=1;shadow=0;labelBackgroundColor=none;edgeStyle=orthogonalEdgeStyle;startArrow=none;" parent="WIyWlLk6GJQsqaUBKTNV-1" source="FMDktdwsjYTPo5hwzyfy-83" target="PNZuK1iH_k0Fpa-wT_F5-3" edge="1">
          <mxGeometry relative="1" as="geometry">
            <mxPoint y="-269.9999999999998" as="sourcePoint" />
          </mxGeometry>
        </mxCell>
        <mxCell id="FMDktdwsjYTPo5hwzyfy-88" value="log in" style="edgeLabel;html=1;align=center;verticalAlign=middle;resizable=0;points=[];" parent="WIyWlLk6GJQsqaUBKTNV-2" vertex="1" connectable="0">
          <mxGeometry x="-0.1905" y="-2" relative="1" as="geometry">
            <mxPoint as="offset" />
          </mxGeometry>
        </mxCell>
        <mxCell id="sf3Kfz852IDjXtzxoqYk-4" style="edgeStyle=orthogonalEdgeStyle;rounded=0;orthogonalLoop=1;jettySize=auto;html=1;" parent="WIyWlLk6GJQsqaUBKTNV-1" source="WIyWlLk6GJQsqaUBKTNV-6" target="PNZuK1iH_k0Fpa-wT_F5-1" edge="1">
          <mxGeometry relative="1" as="geometry" />
        </mxCell>
        <mxCell id="sf3Kfz852IDjXtzxoqYk-5" value="false" style="edgeLabel;html=1;align=center;verticalAlign=middle;resizable=0;points=[];" parent="sf3Kfz852IDjXtzxoqYk-4" vertex="1" connectable="0">
          <mxGeometry x="-0.7517" y="2" relative="1" as="geometry">
            <mxPoint as="offset" />
          </mxGeometry>
        </mxCell>
        <mxCell id="sf3Kfz852IDjXtzxoqYk-6" style="edgeStyle=orthogonalEdgeStyle;rounded=0;orthogonalLoop=1;jettySize=auto;html=1;" parent="WIyWlLk6GJQsqaUBKTNV-1" source="WIyWlLk6GJQsqaUBKTNV-6" target="PNZuK1iH_k0Fpa-wT_F5-9" edge="1">
          <mxGeometry relative="1" as="geometry" />
        </mxCell>
        <mxCell id="sf3Kfz852IDjXtzxoqYk-7" value="true" style="edgeLabel;html=1;align=center;verticalAlign=middle;resizable=0;points=[];" parent="sf3Kfz852IDjXtzxoqYk-6" vertex="1" connectable="0">
          <mxGeometry x="-0.28" y="1" relative="1" as="geometry">
            <mxPoint as="offset" />
          </mxGeometry>
        </mxCell>
        <mxCell id="WIyWlLk6GJQsqaUBKTNV-6" value="&lt;div&gt;Valid&lt;/div&gt;&lt;div&gt;account?&lt;br&gt;&lt;/div&gt;" style="rhombus;whiteSpace=wrap;html=1;shadow=0;fontFamily=Helvetica;fontSize=10;align=center;strokeWidth=1;spacing=6;spacingTop=-4;" parent="WIyWlLk6GJQsqaUBKTNV-1" vertex="1">
          <mxGeometry x="-50" y="50" width="100" height="80" as="geometry" />
        </mxCell>
        <mxCell id="FMDktdwsjYTPo5hwzyfy-92" style="edgeStyle=orthogonalEdgeStyle;rounded=0;orthogonalLoop=1;jettySize=auto;html=1;" parent="WIyWlLk6GJQsqaUBKTNV-1" source="PNZuK1iH_k0Fpa-wT_F5-0" target="FMDktdwsjYTPo5hwzyfy-83" edge="1">
          <mxGeometry relative="1" as="geometry" />
        </mxCell>
        <mxCell id="PNZuK1iH_k0Fpa-wT_F5-0" value="input" style="shape=parallelogram;perimeter=parallelogramPerimeter;whiteSpace=wrap;html=1;fixedSize=1;fontSize=10;" parent="WIyWlLk6GJQsqaUBKTNV-1" vertex="1">
          <mxGeometry x="-60" y="-320" width="120" height="60" as="geometry" />
        </mxCell>
        <mxCell id="PNZuK1iH_k0Fpa-wT_F5-2" style="edgeStyle=orthogonalEdgeStyle;rounded=0;orthogonalLoop=1;jettySize=auto;html=1;fontSize=10;" parent="WIyWlLk6GJQsqaUBKTNV-1" source="PNZuK1iH_k0Fpa-wT_F5-1" target="PNZuK1iH_k0Fpa-wT_F5-7" edge="1">
          <mxGeometry relative="1" as="geometry">
            <Array as="points">
              <mxPoint x="140" y="-390" />
            </Array>
          </mxGeometry>
        </mxCell>
        <mxCell id="PNZuK1iH_k0Fpa-wT_F5-1" value="&lt;div&gt;&lt;br&gt;&lt;/div&gt;&lt;div&gt;Invalid&lt;br&gt;&lt;/div&gt;&lt;div&gt;loginDetails&lt;br&gt;&lt;/div&gt;" style="shape=parallelogram;perimeter=parallelogramPerimeter;whiteSpace=wrap;html=1;fixedSize=1;fontSize=10;" parent="WIyWlLk6GJQsqaUBKTNV-1" vertex="1">
          <mxGeometry x="80" y="-170" width="120" height="60" as="geometry" />
        </mxCell>
        <mxCell id="PNZuK1iH_k0Fpa-wT_F5-4" style="edgeStyle=orthogonalEdgeStyle;rounded=0;orthogonalLoop=1;jettySize=auto;html=1;fontSize=10;" parent="WIyWlLk6GJQsqaUBKTNV-1" source="PNZuK1iH_k0Fpa-wT_F5-3" target="WIyWlLk6GJQsqaUBKTNV-6" edge="1">
          <mxGeometry relative="1" as="geometry">
            <mxPoint x="-0.03448275862047012" y="40.02758620689656" as="targetPoint" />
          </mxGeometry>
        </mxCell>
        <mxCell id="PNZuK1iH_k0Fpa-wT_F5-3" value="Check database" style="rounded=1;whiteSpace=wrap;html=1;fontSize=10;" parent="WIyWlLk6GJQsqaUBKTNV-1" vertex="1">
          <mxGeometry x="-60" y="-70" width="120" height="60" as="geometry" />
        </mxCell>
        <mxCell id="PNZuK1iH_k0Fpa-wT_F5-6" style="edgeStyle=orthogonalEdgeStyle;rounded=0;orthogonalLoop=1;jettySize=auto;html=1;fontSize=10;" parent="WIyWlLk6GJQsqaUBKTNV-1" source="PNZuK1iH_k0Fpa-wT_F5-5" target="FMDktdwsjYTPo5hwzyfy-9" edge="1">
          <mxGeometry relative="1" as="geometry" />
        </mxCell>
        <mxCell id="PNZuK1iH_k0Fpa-wT_F5-5" value="Start" style="ellipse;whiteSpace=wrap;html=1;fontSize=10;" parent="WIyWlLk6GJQsqaUBKTNV-1" vertex="1">
          <mxGeometry x="-60" y="-620" width="120" height="80" as="geometry" />
        </mxCell>
        <mxCell id="PNZuK1iH_k0Fpa-wT_F5-8" style="edgeStyle=orthogonalEdgeStyle;rounded=0;orthogonalLoop=1;jettySize=auto;html=1;fontSize=10;" parent="WIyWlLk6GJQsqaUBKTNV-1" source="PNZuK1iH_k0Fpa-wT_F5-7" target="PNZuK1iH_k0Fpa-wT_F5-0" edge="1">
          <mxGeometry relative="1" as="geometry" />
        </mxCell>
        <mxCell id="PNZuK1iH_k0Fpa-wT_F5-7" value="Log in menu" style="shape=parallelogram;perimeter=parallelogramPerimeter;whiteSpace=wrap;html=1;fixedSize=1;fontSize=10;" parent="WIyWlLk6GJQsqaUBKTNV-1" vertex="1">
          <mxGeometry x="-60" y="-420" width="120" height="60" as="geometry" />
        </mxCell>
        <mxCell id="FMDktdwsjYTPo5hwzyfy-33" style="edgeStyle=orthogonalEdgeStyle;rounded=0;orthogonalLoop=1;jettySize=auto;html=1;" parent="WIyWlLk6GJQsqaUBKTNV-1" source="PNZuK1iH_k0Fpa-wT_F5-9" target="FMDktdwsjYTPo5hwzyfy-29" edge="1">
          <mxGeometry relative="1" as="geometry" />
        </mxCell>
        <mxCell id="PNZuK1iH_k0Fpa-wT_F5-9" value="&lt;div&gt;Set current user&lt;/div&gt;" style="rounded=1;whiteSpace=wrap;html=1;fontSize=10;" parent="WIyWlLk6GJQsqaUBKTNV-1" vertex="1">
          <mxGeometry x="-60" y="180" width="120" height="60" as="geometry" />
        </mxCell>
        <mxCell id="FMDktdwsjYTPo5hwzyfy-7" style="edgeStyle=orthogonalEdgeStyle;rounded=0;orthogonalLoop=1;jettySize=auto;html=1;" parent="WIyWlLk6GJQsqaUBKTNV-1" source="FMDktdwsjYTPo5hwzyfy-4" target="FMDktdwsjYTPo5hwzyfy-6" edge="1">
          <mxGeometry relative="1" as="geometry">
            <Array as="points">
              <mxPoint x="-560" y="725" />
            </Array>
          </mxGeometry>
        </mxCell>
        <mxCell id="FMDktdwsjYTPo5hwzyfy-13" value="Bookings (Receptionist, Doctor)" style="edgeLabel;html=1;align=center;verticalAlign=middle;resizable=0;points=[];" parent="FMDktdwsjYTPo5hwzyfy-7" vertex="1" connectable="0">
          <mxGeometry x="-0.0945" y="3" relative="1" as="geometry">
            <mxPoint x="182" y="-3" as="offset" />
          </mxGeometry>
        </mxCell>
        <mxCell id="FMDktdwsjYTPo5hwzyfy-15" style="edgeStyle=orthogonalEdgeStyle;rounded=0;orthogonalLoop=1;jettySize=auto;html=1;" parent="WIyWlLk6GJQsqaUBKTNV-1" source="FMDktdwsjYTPo5hwzyfy-4" target="FMDktdwsjYTPo5hwzyfy-14" edge="1">
          <mxGeometry relative="1" as="geometry">
            <Array as="points">
              <mxPoint x="230" y="750" />
            </Array>
          </mxGeometry>
        </mxCell>
        <mxCell id="FMDktdwsjYTPo5hwzyfy-55" value="Orders (Receptionist)" style="edgeLabel;html=1;align=center;verticalAlign=middle;resizable=0;points=[];" parent="FMDktdwsjYTPo5hwzyfy-15" vertex="1" connectable="0">
          <mxGeometry x="-0.1804" y="1" relative="1" as="geometry">
            <mxPoint x="-14" as="offset" />
          </mxGeometry>
        </mxCell>
        <mxCell id="FMDktdwsjYTPo5hwzyfy-62" style="edgeStyle=orthogonalEdgeStyle;rounded=0;orthogonalLoop=1;jettySize=auto;html=1;" parent="WIyWlLk6GJQsqaUBKTNV-1" source="FMDktdwsjYTPo5hwzyfy-4" target="FMDktdwsjYTPo5hwzyfy-61" edge="1">
          <mxGeometry relative="1" as="geometry">
            <Array as="points">
              <mxPoint x="-230" y="750" />
            </Array>
          </mxGeometry>
        </mxCell>
        <mxCell id="I7iAI7oBFa5zMu84nfNV-2" value="Journals (Doctor)" style="edgeLabel;html=1;align=center;verticalAlign=middle;resizable=0;points=[];" parent="FMDktdwsjYTPo5hwzyfy-62" vertex="1" connectable="0">
          <mxGeometry x="-0.4194" relative="1" as="geometry">
            <mxPoint x="80" y="-68" as="offset" />
          </mxGeometry>
        </mxCell>
        <mxCell id="FMDktdwsjYTPo5hwzyfy-69" style="edgeStyle=orthogonalEdgeStyle;rounded=0;orthogonalLoop=1;jettySize=auto;html=1;" parent="WIyWlLk6GJQsqaUBKTNV-1" source="FMDktdwsjYTPo5hwzyfy-4" target="FMDktdwsjYTPo5hwzyfy-68" edge="1">
          <mxGeometry relative="1" as="geometry">
            <Array as="points">
              <mxPoint x="980" y="725" />
            </Array>
          </mxGeometry>
        </mxCell>
        <mxCell id="FMDktdwsjYTPo5hwzyfy-76" value="Manage users (Admin)" style="edgeLabel;html=1;align=center;verticalAlign=middle;resizable=0;points=[];" parent="FMDktdwsjYTPo5hwzyfy-69" vertex="1" connectable="0">
          <mxGeometry x="-0.3394" y="2" relative="1" as="geometry">
            <mxPoint x="-231" y="2" as="offset" />
          </mxGeometry>
        </mxCell>
        <mxCell id="FMDktdwsjYTPo5hwzyfy-71" style="edgeStyle=orthogonalEdgeStyle;rounded=0;orthogonalLoop=1;jettySize=auto;html=1;" parent="WIyWlLk6GJQsqaUBKTNV-1" source="FMDktdwsjYTPo5hwzyfy-4" target="FMDktdwsjYTPo5hwzyfy-70" edge="1">
          <mxGeometry relative="1" as="geometry">
            <Array as="points">
              <mxPoint x="740" y="700" />
            </Array>
          </mxGeometry>
        </mxCell>
        <mxCell id="FMDktdwsjYTPo5hwzyfy-72" value="Log out (all)" style="edgeLabel;html=1;align=center;verticalAlign=middle;resizable=0;points=[];" parent="FMDktdwsjYTPo5hwzyfy-71" vertex="1" connectable="0">
          <mxGeometry x="-0.2207" y="1" relative="1" as="geometry">
            <mxPoint x="-180" y="1" as="offset" />
          </mxGeometry>
        </mxCell>
        <mxCell id="y11WNSYkZFv8qLSEC6Jq-25" style="edgeStyle=orthogonalEdgeStyle;rounded=0;orthogonalLoop=1;jettySize=auto;html=1;endArrow=classic;endFill=1;" parent="WIyWlLk6GJQsqaUBKTNV-1" source="FMDktdwsjYTPo5hwzyfy-4" target="y11WNSYkZFv8qLSEC6Jq-21" edge="1">
          <mxGeometry relative="1" as="geometry">
            <Array as="points">
              <mxPoint x="-490" y="700" />
              <mxPoint x="-490" y="605" />
            </Array>
          </mxGeometry>
        </mxCell>
        <mxCell id="sf3Kfz852IDjXtzxoqYk-9" value="Schedule (Receptionist)" style="edgeLabel;html=1;align=center;verticalAlign=middle;resizable=0;points=[];" parent="y11WNSYkZFv8qLSEC6Jq-25" vertex="1" connectable="0">
          <mxGeometry x="-0.6209" y="-3" relative="1" as="geometry">
            <mxPoint as="offset" />
          </mxGeometry>
        </mxCell>
        <mxCell id="FMDktdwsjYTPo5hwzyfy-4" value="&lt;div&gt;Operate on&lt;/div&gt;input" style="rhombus;whiteSpace=wrap;html=1;shadow=0;fontFamily=Helvetica;fontSize=10;align=center;strokeWidth=1;spacing=6;spacingTop=-4;" parent="WIyWlLk6GJQsqaUBKTNV-1" vertex="1">
          <mxGeometry x="-50" y="685" width="100" height="80" as="geometry" />
        </mxCell>
        <mxCell id="FMDktdwsjYTPo5hwzyfy-95" style="edgeStyle=orthogonalEdgeStyle;rounded=0;orthogonalLoop=1;jettySize=auto;html=1;" parent="WIyWlLk6GJQsqaUBKTNV-1" source="FMDktdwsjYTPo5hwzyfy-6" target="y11WNSYkZFv8qLSEC6Jq-18" edge="1">
          <mxGeometry relative="1" as="geometry" />
        </mxCell>
        <mxCell id="FMDktdwsjYTPo5hwzyfy-6" value="&lt;div&gt;Set booking menu&lt;/div&gt;" style="rounded=1;whiteSpace=wrap;html=1;" parent="WIyWlLk6GJQsqaUBKTNV-1" vertex="1">
          <mxGeometry x="-620" y="815" width="120" height="60" as="geometry" />
        </mxCell>
        <mxCell id="FMDktdwsjYTPo5hwzyfy-10" style="edgeStyle=orthogonalEdgeStyle;rounded=0;orthogonalLoop=1;jettySize=auto;html=1;" parent="WIyWlLk6GJQsqaUBKTNV-1" source="FMDktdwsjYTPo5hwzyfy-9" target="PNZuK1iH_k0Fpa-wT_F5-7" edge="1">
          <mxGeometry relative="1" as="geometry" />
        </mxCell>
        <mxCell id="FMDktdwsjYTPo5hwzyfy-9" value="&lt;div&gt;Open login&lt;/div&gt;&lt;div&gt;menu&lt;br&gt;&lt;/div&gt;" style="rounded=1;whiteSpace=wrap;html=1;" parent="WIyWlLk6GJQsqaUBKTNV-1" vertex="1">
          <mxGeometry x="-60" y="-510" width="120" height="60" as="geometry" />
        </mxCell>
        <mxCell id="I7iAI7oBFa5zMu84nfNV-12" style="edgeStyle=orthogonalEdgeStyle;rounded=0;orthogonalLoop=1;jettySize=auto;html=1;" parent="WIyWlLk6GJQsqaUBKTNV-1" source="FMDktdwsjYTPo5hwzyfy-14" target="I7iAI7oBFa5zMu84nfNV-10" edge="1">
          <mxGeometry relative="1" as="geometry">
            <Array as="points">
              <mxPoint x="240" y="1000" />
              <mxPoint x="240" y="1000" />
            </Array>
          </mxGeometry>
        </mxCell>
        <mxCell id="FMDktdwsjYTPo5hwzyfy-14" value="order menu" style="rounded=1;whiteSpace=wrap;html=1;" parent="WIyWlLk6GJQsqaUBKTNV-1" vertex="1">
          <mxGeometry x="170" y="890" width="120" height="60" as="geometry" />
        </mxCell>
        <mxCell id="FMDktdwsjYTPo5hwzyfy-36" style="edgeStyle=orthogonalEdgeStyle;rounded=0;orthogonalLoop=1;jettySize=auto;html=1;" parent="WIyWlLk6GJQsqaUBKTNV-1" source="FMDktdwsjYTPo5hwzyfy-29" target="FMDktdwsjYTPo5hwzyfy-66" edge="1">
          <mxGeometry relative="1" as="geometry">
            <mxPoint y="380" as="targetPoint" />
          </mxGeometry>
        </mxCell>
        <mxCell id="FMDktdwsjYTPo5hwzyfy-29" value="&lt;div&gt;Set main menu&lt;/div&gt;" style="rounded=1;whiteSpace=wrap;html=1;fontSize=10;" parent="WIyWlLk6GJQsqaUBKTNV-1" vertex="1">
          <mxGeometry x="-60" y="285" width="120" height="60" as="geometry" />
        </mxCell>
        <mxCell id="FMDktdwsjYTPo5hwzyfy-53" style="edgeStyle=orthogonalEdgeStyle;rounded=0;orthogonalLoop=1;jettySize=auto;html=1;" parent="WIyWlLk6GJQsqaUBKTNV-1" source="FMDktdwsjYTPo5hwzyfy-52" target="FMDktdwsjYTPo5hwzyfy-4" edge="1">
          <mxGeometry relative="1" as="geometry" />
        </mxCell>
        <mxCell id="FMDktdwsjYTPo5hwzyfy-52" value="input" style="shape=parallelogram;perimeter=parallelogramPerimeter;whiteSpace=wrap;html=1;fixedSize=1;fontSize=10;" parent="WIyWlLk6GJQsqaUBKTNV-1" vertex="1">
          <mxGeometry x="-60" y="600" width="120" height="60" as="geometry" />
        </mxCell>
        <mxCell id="I7iAI7oBFa5zMu84nfNV-7" style="edgeStyle=orthogonalEdgeStyle;rounded=0;orthogonalLoop=1;jettySize=auto;html=1;" parent="WIyWlLk6GJQsqaUBKTNV-1" source="FMDktdwsjYTPo5hwzyfy-61" target="y11WNSYkZFv8qLSEC6Jq-9" edge="1">
          <mxGeometry relative="1" as="geometry" />
        </mxCell>
        <mxCell id="FMDktdwsjYTPo5hwzyfy-61" value="Set journal menu" style="rounded=1;whiteSpace=wrap;html=1;" parent="WIyWlLk6GJQsqaUBKTNV-1" vertex="1">
          <mxGeometry x="-290" y="1500" width="120" height="60" as="geometry" />
        </mxCell>
        <mxCell id="IKRyVrBYdVtoieGqFptR-6" style="edgeStyle=orthogonalEdgeStyle;rounded=0;orthogonalLoop=1;jettySize=auto;html=1;" edge="1" parent="WIyWlLk6GJQsqaUBKTNV-1" source="FMDktdwsjYTPo5hwzyfy-66" target="IKRyVrBYdVtoieGqFptR-5">
          <mxGeometry relative="1" as="geometry" />
        </mxCell>
        <mxCell id="FMDktdwsjYTPo5hwzyfy-66" value="open main menu" style="rounded=1;whiteSpace=wrap;html=1;fontSize=10;" parent="WIyWlLk6GJQsqaUBKTNV-1" vertex="1">
          <mxGeometry x="-60" y="360" width="120" height="60" as="geometry" />
        </mxCell>
        <mxCell id="I7iAI7oBFa5zMu84nfNV-17" style="edgeStyle=orthogonalEdgeStyle;rounded=0;orthogonalLoop=1;jettySize=auto;html=1;" parent="WIyWlLk6GJQsqaUBKTNV-1" source="FMDktdwsjYTPo5hwzyfy-68" target="9IUY6pW5Jq0thiJMLmAM-11" edge="1">
          <mxGeometry relative="1" as="geometry" />
        </mxCell>
        <mxCell id="FMDktdwsjYTPo5hwzyfy-68" value="Set admin menu" style="rounded=1;whiteSpace=wrap;html=1;" parent="WIyWlLk6GJQsqaUBKTNV-1" vertex="1">
          <mxGeometry x="920" y="830" width="120" height="60" as="geometry" />
        </mxCell>
        <mxCell id="FMDktdwsjYTPo5hwzyfy-73" style="edgeStyle=orthogonalEdgeStyle;rounded=0;orthogonalLoop=1;jettySize=auto;html=1;" parent="WIyWlLk6GJQsqaUBKTNV-1" source="FMDktdwsjYTPo5hwzyfy-70" target="FMDktdwsjYTPo5hwzyfy-9" edge="1">
          <mxGeometry relative="1" as="geometry">
            <Array as="points">
              <mxPoint x="1280" y="700" />
              <mxPoint x="1280" y="-480" />
            </Array>
          </mxGeometry>
        </mxCell>
        <mxCell id="FMDktdwsjYTPo5hwzyfy-70" value="&lt;div&gt;set current user&lt;/div&gt;&lt;div&gt;to null&lt;br&gt;&lt;/div&gt;" style="rounded=1;whiteSpace=wrap;html=1;" parent="WIyWlLk6GJQsqaUBKTNV-1" vertex="1">
          <mxGeometry x="1050" y="670" width="120" height="60" as="geometry" />
        </mxCell>
        <mxCell id="FMDktdwsjYTPo5hwzyfy-82" value="End" style="ellipse;whiteSpace=wrap;html=1;fontSize=10;" parent="WIyWlLk6GJQsqaUBKTNV-1" vertex="1">
          <mxGeometry x="-230" y="-620" width="120" height="80" as="geometry" />
        </mxCell>
        <mxCell id="FMDktdwsjYTPo5hwzyfy-89" style="edgeStyle=orthogonalEdgeStyle;rounded=0;orthogonalLoop=1;jettySize=auto;html=1;" parent="WIyWlLk6GJQsqaUBKTNV-1" source="FMDktdwsjYTPo5hwzyfy-83" target="FMDktdwsjYTPo5hwzyfy-82" edge="1">
          <mxGeometry relative="1" as="geometry" />
        </mxCell>
        <mxCell id="FMDktdwsjYTPo5hwzyfy-90" value="quit" style="edgeLabel;html=1;align=center;verticalAlign=middle;resizable=0;points=[];" parent="FMDktdwsjYTPo5hwzyfy-89" vertex="1" connectable="0">
          <mxGeometry x="-0.8183" y="-1" relative="1" as="geometry">
            <mxPoint as="offset" />
          </mxGeometry>
        </mxCell>
        <mxCell id="FMDktdwsjYTPo5hwzyfy-83" value="Operate on input" style="rhombus;whiteSpace=wrap;html=1;shadow=0;fontFamily=Helvetica;fontSize=10;align=center;strokeWidth=1;spacing=6;spacingTop=-4;" parent="WIyWlLk6GJQsqaUBKTNV-1" vertex="1">
          <mxGeometry x="-50" y="-220" width="100" height="80" as="geometry" />
        </mxCell>
        <mxCell id="FMDktdwsjYTPo5hwzyfy-97" style="edgeStyle=orthogonalEdgeStyle;rounded=0;orthogonalLoop=1;jettySize=auto;html=1;" parent="WIyWlLk6GJQsqaUBKTNV-1" source="FMDktdwsjYTPo5hwzyfy-94" target="FMDktdwsjYTPo5hwzyfy-96" edge="1">
          <mxGeometry relative="1" as="geometry" />
        </mxCell>
        <mxCell id="FMDktdwsjYTPo5hwzyfy-94" value="input" style="shape=parallelogram;perimeter=parallelogramPerimeter;whiteSpace=wrap;html=1;fixedSize=1;fontSize=10;" parent="WIyWlLk6GJQsqaUBKTNV-1" vertex="1">
          <mxGeometry x="-620" y="1015" width="120" height="60" as="geometry" />
        </mxCell>
        <mxCell id="FMDktdwsjYTPo5hwzyfy-98" style="edgeStyle=orthogonalEdgeStyle;rounded=0;orthogonalLoop=1;jettySize=auto;html=1;exitX=0;exitY=1;exitDx=0;exitDy=0;" parent="WIyWlLk6GJQsqaUBKTNV-1" source="FMDktdwsjYTPo5hwzyfy-96" target="FMDktdwsjYTPo5hwzyfy-66" edge="1">
          <mxGeometry relative="1" as="geometry">
            <Array as="points">
              <mxPoint x="-585" y="1190" />
              <mxPoint x="-870" y="1190" />
              <mxPoint x="-870" y="400" />
            </Array>
          </mxGeometry>
        </mxCell>
        <mxCell id="FMDktdwsjYTPo5hwzyfy-100" value="cancel" style="edgeLabel;html=1;align=center;verticalAlign=middle;resizable=0;points=[];" parent="FMDktdwsjYTPo5hwzyfy-98" vertex="1" connectable="0">
          <mxGeometry x="-0.9223" y="-2" relative="1" as="geometry">
            <mxPoint x="23" y="2" as="offset" />
          </mxGeometry>
        </mxCell>
        <mxCell id="y11WNSYkZFv8qLSEC6Jq-5" style="edgeStyle=orthogonalEdgeStyle;rounded=0;orthogonalLoop=1;jettySize=auto;html=1;" parent="WIyWlLk6GJQsqaUBKTNV-1" target="y11WNSYkZFv8qLSEC6Jq-4" edge="1">
          <mxGeometry relative="1" as="geometry">
            <mxPoint x="-541.2500000000002" y="1135" as="sourcePoint" />
            <mxPoint x="-330" y="1125" as="targetPoint" />
            <Array as="points">
              <mxPoint x="-430" y="1135" />
            </Array>
          </mxGeometry>
        </mxCell>
        <mxCell id="y11WNSYkZFv8qLSEC6Jq-6" value="add employee" style="edgeLabel;html=1;align=center;verticalAlign=middle;resizable=0;points=[];" parent="y11WNSYkZFv8qLSEC6Jq-5" vertex="1" connectable="0">
          <mxGeometry x="-0.1704" relative="1" as="geometry">
            <mxPoint x="-16" as="offset" />
          </mxGeometry>
        </mxCell>
        <mxCell id="y11WNSYkZFv8qLSEC6Jq-15" style="edgeStyle=orthogonalEdgeStyle;rounded=0;orthogonalLoop=1;jettySize=auto;html=1;endArrow=classic;endFill=1;" parent="WIyWlLk6GJQsqaUBKTNV-1" source="FMDktdwsjYTPo5hwzyfy-96" target="y11WNSYkZFv8qLSEC6Jq-14" edge="1">
          <mxGeometry relative="1" as="geometry">
            <Array as="points">
              <mxPoint x="-410" y="1175" />
              <mxPoint x="-410" y="1175" />
            </Array>
          </mxGeometry>
        </mxCell>
        <mxCell id="y11WNSYkZFv8qLSEC6Jq-16" value="remove employee" style="edgeLabel;html=1;align=center;verticalAlign=middle;resizable=0;points=[];" parent="y11WNSYkZFv8qLSEC6Jq-15" vertex="1" connectable="0">
          <mxGeometry x="-0.5138" relative="1" as="geometry">
            <mxPoint x="18" as="offset" />
          </mxGeometry>
        </mxCell>
        <mxCell id="PGZs-xxjdeKcP7TGmokP-3" style="edgeStyle=orthogonalEdgeStyle;rounded=0;orthogonalLoop=1;jettySize=auto;html=1;" parent="WIyWlLk6GJQsqaUBKTNV-1" source="FMDktdwsjYTPo5hwzyfy-96" target="PGZs-xxjdeKcP7TGmokP-2" edge="1">
          <mxGeometry relative="1" as="geometry" />
        </mxCell>
        <mxCell id="PGZs-xxjdeKcP7TGmokP-4" value="create booking" style="edgeLabel;html=1;align=center;verticalAlign=middle;resizable=0;points=[];" parent="PGZs-xxjdeKcP7TGmokP-3" vertex="1" connectable="0">
          <mxGeometry x="-0.2857" y="-1" relative="1" as="geometry">
            <mxPoint as="offset" />
          </mxGeometry>
        </mxCell>
        <mxCell id="PGZs-xxjdeKcP7TGmokP-10" value="add item" style="edgeStyle=orthogonalEdgeStyle;rounded=0;orthogonalLoop=1;jettySize=auto;html=1;" parent="WIyWlLk6GJQsqaUBKTNV-1" source="FMDktdwsjYTPo5hwzyfy-96" target="PGZs-xxjdeKcP7TGmokP-9" edge="1">
          <mxGeometry x="-0.5291" relative="1" as="geometry">
            <Array as="points">
              <mxPoint x="-690" y="1130" />
            </Array>
            <mxPoint as="offset" />
          </mxGeometry>
        </mxCell>
        <mxCell id="FMDktdwsjYTPo5hwzyfy-96" value="&lt;div&gt;Operate on&lt;/div&gt;input" style="rhombus;whiteSpace=wrap;html=1;shadow=0;fontFamily=Helvetica;fontSize=10;align=center;strokeWidth=1;spacing=6;spacingTop=-4;" parent="WIyWlLk6GJQsqaUBKTNV-1" vertex="1">
          <mxGeometry x="-610" y="1110" width="100" height="80" as="geometry" />
        </mxCell>
        <mxCell id="I7iAI7oBFa5zMu84nfNV-3" style="edgeStyle=orthogonalEdgeStyle;rounded=0;orthogonalLoop=1;jettySize=auto;html=1;" parent="WIyWlLk6GJQsqaUBKTNV-1" source="I7iAI7oBFa5zMu84nfNV-4" target="I7iAI7oBFa5zMu84nfNV-6" edge="1">
          <mxGeometry relative="1" as="geometry" />
        </mxCell>
        <mxCell id="I7iAI7oBFa5zMu84nfNV-4" value="input" style="shape=parallelogram;perimeter=parallelogramPerimeter;whiteSpace=wrap;html=1;fixedSize=1;fontSize=10;" parent="WIyWlLk6GJQsqaUBKTNV-1" vertex="1">
          <mxGeometry x="-290" y="1710" width="120" height="60" as="geometry" />
        </mxCell>
        <mxCell id="I7iAI7oBFa5zMu84nfNV-19" style="edgeStyle=orthogonalEdgeStyle;rounded=0;orthogonalLoop=1;jettySize=auto;html=1;" parent="WIyWlLk6GJQsqaUBKTNV-1" source="I7iAI7oBFa5zMu84nfNV-6" target="I7iAI7oBFa5zMu84nfNV-18" edge="1">
          <mxGeometry relative="1" as="geometry">
            <mxPoint x="-619.9714285714285" y="1920" as="targetPoint" />
            <Array as="points">
              <mxPoint x="-620" y="1850" />
            </Array>
          </mxGeometry>
        </mxCell>
        <mxCell id="I7iAI7oBFa5zMu84nfNV-20" value="save" style="edgeLabel;html=1;align=center;verticalAlign=middle;resizable=0;points=[];" parent="I7iAI7oBFa5zMu84nfNV-19" vertex="1" connectable="0">
          <mxGeometry x="0.1286" relative="1" as="geometry">
            <mxPoint as="offset" />
          </mxGeometry>
        </mxCell>
        <mxCell id="I7iAI7oBFa5zMu84nfNV-25" style="edgeStyle=orthogonalEdgeStyle;rounded=0;orthogonalLoop=1;jettySize=auto;html=1;" parent="WIyWlLk6GJQsqaUBKTNV-1" source="I7iAI7oBFa5zMu84nfNV-6" target="I7iAI7oBFa5zMu84nfNV-22" edge="1">
          <mxGeometry relative="1" as="geometry" />
        </mxCell>
        <mxCell id="I7iAI7oBFa5zMu84nfNV-26" value="undo" style="edgeLabel;html=1;align=center;verticalAlign=middle;resizable=0;points=[];" parent="I7iAI7oBFa5zMu84nfNV-25" vertex="1" connectable="0">
          <mxGeometry x="-0.1929" relative="1" as="geometry">
            <mxPoint as="offset" />
          </mxGeometry>
        </mxCell>
        <mxCell id="I7iAI7oBFa5zMu84nfNV-28" style="edgeStyle=orthogonalEdgeStyle;rounded=0;orthogonalLoop=1;jettySize=auto;html=1;" parent="WIyWlLk6GJQsqaUBKTNV-1" source="I7iAI7oBFa5zMu84nfNV-6" target="I7iAI7oBFa5zMu84nfNV-27" edge="1">
          <mxGeometry relative="1" as="geometry">
            <Array as="points">
              <mxPoint x="-460" y="1870" />
            </Array>
          </mxGeometry>
        </mxCell>
        <mxCell id="I7iAI7oBFa5zMu84nfNV-29" value="delete" style="edgeLabel;html=1;align=center;verticalAlign=middle;resizable=0;points=[];" parent="I7iAI7oBFa5zMu84nfNV-28" vertex="1" connectable="0">
          <mxGeometry x="-0.2457" relative="1" as="geometry">
            <mxPoint x="-10" as="offset" />
          </mxGeometry>
        </mxCell>
        <mxCell id="I7iAI7oBFa5zMu84nfNV-35" style="edgeStyle=orthogonalEdgeStyle;rounded=0;orthogonalLoop=1;jettySize=auto;html=1;" parent="WIyWlLk6GJQsqaUBKTNV-1" source="I7iAI7oBFa5zMu84nfNV-6" target="FMDktdwsjYTPo5hwzyfy-66" edge="1">
          <mxGeometry relative="1" as="geometry">
            <mxPoint x="-60" y="470" as="targetPoint" />
            <Array as="points">
              <mxPoint x="-880" y="1830" />
              <mxPoint x="-880" y="390" />
            </Array>
          </mxGeometry>
        </mxCell>
        <mxCell id="I7iAI7oBFa5zMu84nfNV-37" value="back" style="edgeLabel;html=1;align=center;verticalAlign=middle;resizable=0;points=[];" parent="I7iAI7oBFa5zMu84nfNV-35" vertex="1" connectable="0">
          <mxGeometry x="-0.9052" relative="1" as="geometry">
            <mxPoint as="offset" />
          </mxGeometry>
        </mxCell>
        <mxCell id="I7iAI7oBFa5zMu84nfNV-6" value="&lt;div&gt;Operate on&lt;/div&gt;input" style="rhombus;whiteSpace=wrap;html=1;shadow=0;fontFamily=Helvetica;fontSize=10;align=center;strokeWidth=1;spacing=6;spacingTop=-4;" parent="WIyWlLk6GJQsqaUBKTNV-1" vertex="1">
          <mxGeometry x="-280" y="1810" width="100" height="80" as="geometry" />
        </mxCell>
        <mxCell id="I7iAI7oBFa5zMu84nfNV-9" style="edgeStyle=orthogonalEdgeStyle;rounded=0;orthogonalLoop=1;jettySize=auto;html=1;" parent="WIyWlLk6GJQsqaUBKTNV-1" source="I7iAI7oBFa5zMu84nfNV-10" target="I7iAI7oBFa5zMu84nfNV-11" edge="1">
          <mxGeometry relative="1" as="geometry" />
        </mxCell>
        <mxCell id="I7iAI7oBFa5zMu84nfNV-10" value="input" style="shape=parallelogram;perimeter=parallelogramPerimeter;whiteSpace=wrap;html=1;fixedSize=1;fontSize=10;" parent="WIyWlLk6GJQsqaUBKTNV-1" vertex="1">
          <mxGeometry x="170" y="1000" width="120" height="60" as="geometry" />
        </mxCell>
        <mxCell id="QwIVnnNlFT-l4NOjK_I_-2" style="edgeStyle=orthogonalEdgeStyle;rounded=0;orthogonalLoop=1;jettySize=auto;html=1;" parent="WIyWlLk6GJQsqaUBKTNV-1" source="I7iAI7oBFa5zMu84nfNV-11" target="QwIVnnNlFT-l4NOjK_I_-1" edge="1">
          <mxGeometry relative="1" as="geometry">
            <Array as="points">
              <mxPoint x="130" y="1120" />
              <mxPoint x="130" y="1120" />
            </Array>
          </mxGeometry>
        </mxCell>
        <mxCell id="QwIVnnNlFT-l4NOjK_I_-4" value="add to shoppingcart" style="edgeLabel;html=1;align=center;verticalAlign=middle;resizable=0;points=[];" parent="QwIVnnNlFT-l4NOjK_I_-2" vertex="1" connectable="0">
          <mxGeometry x="-0.2178" y="2" relative="1" as="geometry">
            <mxPoint x="-22" y="-2" as="offset" />
          </mxGeometry>
        </mxCell>
        <mxCell id="QwIVnnNlFT-l4NOjK_I_-8" style="edgeStyle=orthogonalEdgeStyle;rounded=0;orthogonalLoop=1;jettySize=auto;html=1;" parent="WIyWlLk6GJQsqaUBKTNV-1" source="I7iAI7oBFa5zMu84nfNV-11" target="QwIVnnNlFT-l4NOjK_I_-7" edge="1">
          <mxGeometry relative="1" as="geometry">
            <Array as="points">
              <mxPoint x="10" y="1170" />
              <mxPoint x="10" y="1170" />
            </Array>
          </mxGeometry>
        </mxCell>
        <mxCell id="QwIVnnNlFT-l4NOjK_I_-10" value="remove item from shoppingcart" style="edgeLabel;html=1;align=center;verticalAlign=middle;resizable=0;points=[];" parent="QwIVnnNlFT-l4NOjK_I_-8" vertex="1" connectable="0">
          <mxGeometry x="-0.4125" y="-1" relative="1" as="geometry">
            <mxPoint x="-57" y="1" as="offset" />
          </mxGeometry>
        </mxCell>
        <mxCell id="QwIVnnNlFT-l4NOjK_I_-16" style="edgeStyle=orthogonalEdgeStyle;rounded=0;orthogonalLoop=1;jettySize=auto;html=1;" parent="WIyWlLk6GJQsqaUBKTNV-1" source="I7iAI7oBFa5zMu84nfNV-11" target="QwIVnnNlFT-l4NOjK_I_-23" edge="1">
          <mxGeometry relative="1" as="geometry">
            <mxPoint x="414" y="1120" as="targetPoint" />
            <Array as="points">
              <mxPoint x="340" y="1140" />
              <mxPoint x="340" y="1140" />
            </Array>
          </mxGeometry>
        </mxCell>
        <mxCell id="QwIVnnNlFT-l4NOjK_I_-17" value="checkout" style="edgeLabel;html=1;align=center;verticalAlign=middle;resizable=0;points=[];" parent="QwIVnnNlFT-l4NOjK_I_-16" vertex="1" connectable="0">
          <mxGeometry x="-0.209" y="-1" relative="1" as="geometry">
            <mxPoint as="offset" />
          </mxGeometry>
        </mxCell>
        <mxCell id="QwIVnnNlFT-l4NOjK_I_-20" style="edgeStyle=orthogonalEdgeStyle;rounded=0;orthogonalLoop=1;jettySize=auto;html=1;endArrow=none;endFill=0;" parent="WIyWlLk6GJQsqaUBKTNV-1" source="I7iAI7oBFa5zMu84nfNV-11" edge="1">
          <mxGeometry relative="1" as="geometry">
            <mxPoint x="480" y="1530" as="targetPoint" />
            <Array as="points">
              <mxPoint x="230" y="1520" />
              <mxPoint x="480" y="1520" />
            </Array>
          </mxGeometry>
        </mxCell>
        <mxCell id="QwIVnnNlFT-l4NOjK_I_-21" value="cancel" style="edgeLabel;html=1;align=center;verticalAlign=middle;resizable=0;points=[];" parent="QwIVnnNlFT-l4NOjK_I_-20" vertex="1" connectable="0">
          <mxGeometry x="-0.653" y="-2" relative="1" as="geometry">
            <mxPoint x="2" y="-74" as="offset" />
          </mxGeometry>
        </mxCell>
        <mxCell id="I7iAI7oBFa5zMu84nfNV-11" value="&lt;div&gt;Operate on&lt;/div&gt;input" style="rhombus;whiteSpace=wrap;html=1;shadow=0;fontFamily=Helvetica;fontSize=10;align=center;strokeWidth=1;spacing=6;spacingTop=-4;" parent="WIyWlLk6GJQsqaUBKTNV-1" vertex="1">
          <mxGeometry x="180" y="1100" width="100" height="80" as="geometry" />
        </mxCell>
        <mxCell id="I7iAI7oBFa5zMu84nfNV-14" style="edgeStyle=orthogonalEdgeStyle;rounded=0;orthogonalLoop=1;jettySize=auto;html=1;" parent="WIyWlLk6GJQsqaUBKTNV-1" source="I7iAI7oBFa5zMu84nfNV-15" target="I7iAI7oBFa5zMu84nfNV-16" edge="1">
          <mxGeometry relative="1" as="geometry" />
        </mxCell>
        <mxCell id="I7iAI7oBFa5zMu84nfNV-15" value="input" style="shape=parallelogram;perimeter=parallelogramPerimeter;whiteSpace=wrap;html=1;fixedSize=1;fontSize=10;" parent="WIyWlLk6GJQsqaUBKTNV-1" vertex="1">
          <mxGeometry x="920" y="1015" width="120" height="60" as="geometry" />
        </mxCell>
        <mxCell id="9IUY6pW5Jq0thiJMLmAM-8" style="edgeStyle=orthogonalEdgeStyle;rounded=0;orthogonalLoop=1;jettySize=auto;html=1;" parent="WIyWlLk6GJQsqaUBKTNV-1" source="I7iAI7oBFa5zMu84nfNV-16" target="9IUY6pW5Jq0thiJMLmAM-7" edge="1">
          <mxGeometry relative="1" as="geometry" />
        </mxCell>
        <mxCell id="9IUY6pW5Jq0thiJMLmAM-9" value="delete" style="edgeLabel;html=1;align=center;verticalAlign=middle;resizable=0;points=[];" parent="9IUY6pW5Jq0thiJMLmAM-8" vertex="1" connectable="0">
          <mxGeometry x="-0.2061" y="-1" relative="1" as="geometry">
            <mxPoint as="offset" />
          </mxGeometry>
        </mxCell>
        <mxCell id="9IUY6pW5Jq0thiJMLmAM-15" style="edgeStyle=orthogonalEdgeStyle;rounded=0;orthogonalLoop=1;jettySize=auto;html=1;" parent="WIyWlLk6GJQsqaUBKTNV-1" source="I7iAI7oBFa5zMu84nfNV-16" target="9IUY6pW5Jq0thiJMLmAM-14" edge="1">
          <mxGeometry relative="1" as="geometry">
            <Array as="points">
              <mxPoint x="980" y="1250" />
            </Array>
          </mxGeometry>
        </mxCell>
        <mxCell id="9IUY6pW5Jq0thiJMLmAM-17" value="create" style="edgeLabel;html=1;align=center;verticalAlign=middle;resizable=0;points=[];" parent="9IUY6pW5Jq0thiJMLmAM-15" vertex="1" connectable="0">
          <mxGeometry x="-0.8045" y="3" relative="1" as="geometry">
            <mxPoint as="offset" />
          </mxGeometry>
        </mxCell>
        <mxCell id="I7iAI7oBFa5zMu84nfNV-16" value="&lt;div&gt;Operate on&lt;/div&gt;input" style="rhombus;whiteSpace=wrap;html=1;shadow=0;fontFamily=Helvetica;fontSize=10;align=center;strokeWidth=1;spacing=6;spacingTop=-4;" parent="WIyWlLk6GJQsqaUBKTNV-1" vertex="1">
          <mxGeometry x="930" y="1115" width="100" height="80" as="geometry" />
        </mxCell>
        <mxCell id="I7iAI7oBFa5zMu84nfNV-41" style="edgeStyle=orthogonalEdgeStyle;rounded=0;orthogonalLoop=1;jettySize=auto;html=1;" parent="WIyWlLk6GJQsqaUBKTNV-1" source="I7iAI7oBFa5zMu84nfNV-18" target="y11WNSYkZFv8qLSEC6Jq-9" edge="1">
          <mxGeometry relative="1" as="geometry">
            <Array as="points">
              <mxPoint x="-620" y="2020" />
              <mxPoint x="160" y="2020" />
              <mxPoint x="160" y="1610" />
            </Array>
          </mxGeometry>
        </mxCell>
        <mxCell id="I7iAI7oBFa5zMu84nfNV-18" value="&lt;div&gt;create new &lt;br&gt;&lt;/div&gt;&lt;div&gt;journal object&lt;br&gt;&lt;/div&gt;" style="rounded=1;whiteSpace=wrap;html=1;" parent="WIyWlLk6GJQsqaUBKTNV-1" vertex="1">
          <mxGeometry x="-680" y="1920" width="120" height="60" as="geometry" />
        </mxCell>
        <mxCell id="I7iAI7oBFa5zMu84nfNV-38" style="edgeStyle=orthogonalEdgeStyle;rounded=0;orthogonalLoop=1;jettySize=auto;html=1;" parent="WIyWlLk6GJQsqaUBKTNV-1" source="I7iAI7oBFa5zMu84nfNV-22" target="y11WNSYkZFv8qLSEC6Jq-9" edge="1">
          <mxGeometry relative="1" as="geometry">
            <Array as="points">
              <mxPoint x="50" y="1630" />
            </Array>
          </mxGeometry>
        </mxCell>
        <mxCell id="I7iAI7oBFa5zMu84nfNV-22" value="&lt;div&gt;pop to get the last journal from LinkedList&amp;lt;Journal&amp;gt;&lt;br&gt;&lt;/div&gt;" style="rounded=1;whiteSpace=wrap;html=1;" parent="WIyWlLk6GJQsqaUBKTNV-1" vertex="1">
          <mxGeometry x="-10" y="1820" width="120" height="60" as="geometry" />
        </mxCell>
        <mxCell id="I7iAI7oBFa5zMu84nfNV-40" style="edgeStyle=orthogonalEdgeStyle;rounded=0;orthogonalLoop=1;jettySize=auto;html=1;" parent="WIyWlLk6GJQsqaUBKTNV-1" source="I7iAI7oBFa5zMu84nfNV-44" target="y11WNSYkZFv8qLSEC6Jq-9" edge="1">
          <mxGeometry relative="1" as="geometry">
            <Array as="points">
              <mxPoint x="120" y="1950" />
              <mxPoint x="120" y="1620" />
            </Array>
          </mxGeometry>
        </mxCell>
        <mxCell id="I7iAI7oBFa5zMu84nfNV-46" style="edgeStyle=orthogonalEdgeStyle;rounded=0;orthogonalLoop=1;jettySize=auto;html=1;" parent="WIyWlLk6GJQsqaUBKTNV-1" source="I7iAI7oBFa5zMu84nfNV-27" target="I7iAI7oBFa5zMu84nfNV-44" edge="1">
          <mxGeometry relative="1" as="geometry" />
        </mxCell>
        <mxCell id="I7iAI7oBFa5zMu84nfNV-27" value="store current journal in LinkedList&amp;lt;Journal&amp;gt;" style="rounded=1;whiteSpace=wrap;html=1;" parent="WIyWlLk6GJQsqaUBKTNV-1" vertex="1">
          <mxGeometry x="-520" y="1920" width="120" height="60" as="geometry" />
        </mxCell>
        <mxCell id="I7iAI7oBFa5zMu84nfNV-44" value="clear all fields" style="rounded=1;whiteSpace=wrap;html=1;" parent="WIyWlLk6GJQsqaUBKTNV-1" vertex="1">
          <mxGeometry x="-330" y="1920" width="120" height="60" as="geometry" />
        </mxCell>
        <mxCell id="y11WNSYkZFv8qLSEC6Jq-7" value="" style="edgeStyle=orthogonalEdgeStyle;rounded=0;orthogonalLoop=1;jettySize=auto;html=1;endArrow=none;endFill=0;" parent="WIyWlLk6GJQsqaUBKTNV-1" source="y11WNSYkZFv8qLSEC6Jq-0" edge="1">
          <mxGeometry x="-0.6307" relative="1" as="geometry">
            <mxPoint x="-870" y="1020" as="targetPoint" />
            <Array as="points">
              <mxPoint x="-870" y="1510" />
            </Array>
            <mxPoint as="offset" />
          </mxGeometry>
        </mxCell>
        <mxCell id="y11WNSYkZFv8qLSEC6Jq-0" value="Create new booking object with current values" style="rounded=1;whiteSpace=wrap;html=1;" parent="WIyWlLk6GJQsqaUBKTNV-1" vertex="1">
          <mxGeometry x="-810" y="1480" width="120" height="60" as="geometry" />
        </mxCell>
        <mxCell id="y11WNSYkZFv8qLSEC6Jq-8" style="edgeStyle=orthogonalEdgeStyle;rounded=0;orthogonalLoop=1;jettySize=auto;html=1;" parent="WIyWlLk6GJQsqaUBKTNV-1" source="y11WNSYkZFv8qLSEC6Jq-4" target="y11WNSYkZFv8qLSEC6Jq-18" edge="1">
          <mxGeometry relative="1" as="geometry">
            <Array as="points">
              <mxPoint x="-430" y="945" />
            </Array>
          </mxGeometry>
        </mxCell>
        <mxCell id="y11WNSYkZFv8qLSEC6Jq-4" value="&lt;div&gt;add employee&lt;/div&gt;&lt;div&gt;to&lt;br&gt;&lt;/div&gt;&lt;div&gt;List&amp;lt;Employee&amp;gt;&lt;br&gt;&lt;/div&gt;" style="rounded=1;whiteSpace=wrap;html=1;" parent="WIyWlLk6GJQsqaUBKTNV-1" vertex="1">
          <mxGeometry x="-490" y="975" width="120" height="60" as="geometry" />
        </mxCell>
        <mxCell id="y11WNSYkZFv8qLSEC6Jq-10" value="" style="edgeStyle=orthogonalEdgeStyle;rounded=0;orthogonalLoop=1;jettySize=auto;html=1;endArrow=none;endFill=0;" parent="WIyWlLk6GJQsqaUBKTNV-1" source="y11WNSYkZFv8qLSEC6Jq-9" target="FMDktdwsjYTPo5hwzyfy-61" edge="1">
          <mxGeometry relative="1" as="geometry" />
        </mxCell>
        <mxCell id="y11WNSYkZFv8qLSEC6Jq-12" style="edgeStyle=orthogonalEdgeStyle;rounded=0;orthogonalLoop=1;jettySize=auto;html=1;endArrow=none;endFill=0;" parent="WIyWlLk6GJQsqaUBKTNV-1" source="y11WNSYkZFv8qLSEC6Jq-9" target="I7iAI7oBFa5zMu84nfNV-4" edge="1">
          <mxGeometry relative="1" as="geometry" />
        </mxCell>
        <mxCell id="y11WNSYkZFv8qLSEC6Jq-9" value="Journal menu" style="rounded=1;whiteSpace=wrap;html=1;" parent="WIyWlLk6GJQsqaUBKTNV-1" vertex="1">
          <mxGeometry x="-290" y="1600" width="120" height="60" as="geometry" />
        </mxCell>
        <mxCell id="y11WNSYkZFv8qLSEC6Jq-17" style="edgeStyle=orthogonalEdgeStyle;rounded=0;orthogonalLoop=1;jettySize=auto;html=1;endArrow=classic;endFill=1;" parent="WIyWlLk6GJQsqaUBKTNV-1" source="y11WNSYkZFv8qLSEC6Jq-14" target="y11WNSYkZFv8qLSEC6Jq-18" edge="1">
          <mxGeometry relative="1" as="geometry">
            <Array as="points">
              <mxPoint x="-350" y="935" />
            </Array>
          </mxGeometry>
        </mxCell>
        <mxCell id="y11WNSYkZFv8qLSEC6Jq-14" value="&lt;div&gt;remove employee&lt;/div&gt;&lt;div&gt;List&amp;lt;Employee&amp;gt;&lt;br&gt;&lt;/div&gt;" style="rounded=1;whiteSpace=wrap;html=1;" parent="WIyWlLk6GJQsqaUBKTNV-1" vertex="1">
          <mxGeometry x="-410" y="1045" width="120" height="60" as="geometry" />
        </mxCell>
        <mxCell id="y11WNSYkZFv8qLSEC6Jq-19" style="edgeStyle=orthogonalEdgeStyle;rounded=0;orthogonalLoop=1;jettySize=auto;html=1;endArrow=classic;endFill=1;" parent="WIyWlLk6GJQsqaUBKTNV-1" source="y11WNSYkZFv8qLSEC6Jq-18" target="FMDktdwsjYTPo5hwzyfy-94" edge="1">
          <mxGeometry relative="1" as="geometry" />
        </mxCell>
        <mxCell id="y11WNSYkZFv8qLSEC6Jq-18" value="booking menu" style="rounded=1;whiteSpace=wrap;html=1;" parent="WIyWlLk6GJQsqaUBKTNV-1" vertex="1">
          <mxGeometry x="-620" y="915" width="120" height="60" as="geometry" />
        </mxCell>
        <mxCell id="y11WNSYkZFv8qLSEC6Jq-20" style="edgeStyle=orthogonalEdgeStyle;rounded=0;orthogonalLoop=1;jettySize=auto;html=1;" parent="WIyWlLk6GJQsqaUBKTNV-1" source="y11WNSYkZFv8qLSEC6Jq-21" target="y11WNSYkZFv8qLSEC6Jq-23" edge="1">
          <mxGeometry relative="1" as="geometry" />
        </mxCell>
        <mxCell id="y11WNSYkZFv8qLSEC6Jq-21" value="Open Schedule" style="rounded=1;whiteSpace=wrap;html=1;" parent="WIyWlLk6GJQsqaUBKTNV-1" vertex="1">
          <mxGeometry x="-760" y="575" width="120" height="60" as="geometry" />
        </mxCell>
        <mxCell id="y11WNSYkZFv8qLSEC6Jq-22" style="edgeStyle=orthogonalEdgeStyle;rounded=0;orthogonalLoop=1;jettySize=auto;html=1;" parent="WIyWlLk6GJQsqaUBKTNV-1" source="y11WNSYkZFv8qLSEC6Jq-23" target="y11WNSYkZFv8qLSEC6Jq-24" edge="1">
          <mxGeometry relative="1" as="geometry" />
        </mxCell>
        <mxCell id="y11WNSYkZFv8qLSEC6Jq-23" value="input" style="shape=parallelogram;perimeter=parallelogramPerimeter;whiteSpace=wrap;html=1;fixedSize=1;fontSize=10;" parent="WIyWlLk6GJQsqaUBKTNV-1" vertex="1">
          <mxGeometry x="-760" y="695" width="120" height="60" as="geometry" />
        </mxCell>
        <mxCell id="y11WNSYkZFv8qLSEC6Jq-27" style="edgeStyle=orthogonalEdgeStyle;rounded=0;orthogonalLoop=1;jettySize=auto;html=1;endArrow=classic;endFill=1;" parent="WIyWlLk6GJQsqaUBKTNV-1" source="y11WNSYkZFv8qLSEC6Jq-24" target="FMDktdwsjYTPo5hwzyfy-66" edge="1">
          <mxGeometry relative="1" as="geometry">
            <Array as="points">
              <mxPoint x="-860" y="835" />
              <mxPoint x="-860" y="410" />
            </Array>
          </mxGeometry>
        </mxCell>
        <mxCell id="y11WNSYkZFv8qLSEC6Jq-28" value="back" style="edgeLabel;html=1;align=center;verticalAlign=middle;resizable=0;points=[];" parent="y11WNSYkZFv8qLSEC6Jq-27" vertex="1" connectable="0">
          <mxGeometry x="-0.9619" relative="1" as="geometry">
            <mxPoint as="offset" />
          </mxGeometry>
        </mxCell>
        <mxCell id="y11WNSYkZFv8qLSEC6Jq-24" value="&lt;div&gt;Operate on&lt;/div&gt;input" style="rhombus;whiteSpace=wrap;html=1;shadow=0;fontFamily=Helvetica;fontSize=10;align=center;strokeWidth=1;spacing=6;spacingTop=-4;" parent="WIyWlLk6GJQsqaUBKTNV-1" vertex="1">
          <mxGeometry x="-750" y="795" width="100" height="80" as="geometry" />
        </mxCell>
        <mxCell id="QwIVnnNlFT-l4NOjK_I_-5" style="edgeStyle=orthogonalEdgeStyle;rounded=0;orthogonalLoop=1;jettySize=auto;html=1;" parent="WIyWlLk6GJQsqaUBKTNV-1" source="QwIVnnNlFT-l4NOjK_I_-1" target="FMDktdwsjYTPo5hwzyfy-14" edge="1">
          <mxGeometry relative="1" as="geometry">
            <Array as="points">
              <mxPoint x="-10" y="920" />
            </Array>
          </mxGeometry>
        </mxCell>
        <mxCell id="QwIVnnNlFT-l4NOjK_I_-1" value="&lt;div&gt;add item to &lt;br&gt;&lt;/div&gt;&lt;div&gt;List&amp;lt;Item&amp;gt;&lt;br&gt;&lt;/div&gt;" style="rounded=1;whiteSpace=wrap;html=1;" parent="WIyWlLk6GJQsqaUBKTNV-1" vertex="1">
          <mxGeometry x="-70" y="1090" width="120" height="60" as="geometry" />
        </mxCell>
        <mxCell id="QwIVnnNlFT-l4NOjK_I_-6" value="&lt;div&gt;Set order&lt;/div&gt;&lt;div&gt;menu&lt;br&gt;&lt;/div&gt;" style="rounded=1;whiteSpace=wrap;html=1;" parent="WIyWlLk6GJQsqaUBKTNV-1" vertex="1">
          <mxGeometry x="170" y="790" width="120" height="60" as="geometry" />
        </mxCell>
        <mxCell id="QwIVnnNlFT-l4NOjK_I_-11" style="edgeStyle=orthogonalEdgeStyle;rounded=0;orthogonalLoop=1;jettySize=auto;html=1;" parent="WIyWlLk6GJQsqaUBKTNV-1" source="QwIVnnNlFT-l4NOjK_I_-7" target="FMDktdwsjYTPo5hwzyfy-14" edge="1">
          <mxGeometry relative="1" as="geometry">
            <Array as="points">
              <mxPoint x="-150" y="910" />
            </Array>
          </mxGeometry>
        </mxCell>
        <mxCell id="QwIVnnNlFT-l4NOjK_I_-7" value="&lt;div&gt;remove selected item from&lt;/div&gt;&lt;div&gt;List&amp;lt;Item&amp;gt;&lt;br&gt;&lt;/div&gt;" style="rounded=1;whiteSpace=wrap;html=1;" parent="WIyWlLk6GJQsqaUBKTNV-1" vertex="1">
          <mxGeometry x="-210" y="1140" width="120" height="60" as="geometry" />
        </mxCell>
        <mxCell id="QwIVnnNlFT-l4NOjK_I_-18" style="edgeStyle=orthogonalEdgeStyle;rounded=0;orthogonalLoop=1;jettySize=auto;html=1;" parent="WIyWlLk6GJQsqaUBKTNV-1" source="QwIVnnNlFT-l4NOjK_I_-32" target="FMDktdwsjYTPo5hwzyfy-66" edge="1">
          <mxGeometry relative="1" as="geometry">
            <mxPoint x="474" y="1150" as="sourcePoint" />
            <Array as="points">
              <mxPoint x="480" y="2070" />
              <mxPoint x="-890" y="2070" />
              <mxPoint x="-890" y="380" />
            </Array>
          </mxGeometry>
        </mxCell>
        <mxCell id="9IUY6pW5Jq0thiJMLmAM-0" value="return to menu" style="edgeLabel;html=1;align=center;verticalAlign=middle;resizable=0;points=[];" parent="QwIVnnNlFT-l4NOjK_I_-18" vertex="1" connectable="0">
          <mxGeometry x="-0.9372" y="2" relative="1" as="geometry">
            <mxPoint as="offset" />
          </mxGeometry>
        </mxCell>
        <mxCell id="QwIVnnNlFT-l4NOjK_I_-26" style="edgeStyle=orthogonalEdgeStyle;rounded=0;orthogonalLoop=1;jettySize=auto;html=1;endArrow=classic;endFill=1;" parent="WIyWlLk6GJQsqaUBKTNV-1" source="QwIVnnNlFT-l4NOjK_I_-23" target="QwIVnnNlFT-l4NOjK_I_-25" edge="1">
          <mxGeometry relative="1" as="geometry" />
        </mxCell>
        <mxCell id="QwIVnnNlFT-l4NOjK_I_-29" value="false" style="edgeLabel;html=1;align=center;verticalAlign=middle;resizable=0;points=[];" parent="QwIVnnNlFT-l4NOjK_I_-26" vertex="1" connectable="0">
          <mxGeometry x="-0.225" y="-1" relative="1" as="geometry">
            <mxPoint as="offset" />
          </mxGeometry>
        </mxCell>
        <mxCell id="QwIVnnNlFT-l4NOjK_I_-37" value="true" style="edgeStyle=orthogonalEdgeStyle;rounded=0;orthogonalLoop=1;jettySize=auto;html=1;endArrow=classic;endFill=1;" parent="WIyWlLk6GJQsqaUBKTNV-1" source="QwIVnnNlFT-l4NOjK_I_-23" target="QwIVnnNlFT-l4NOjK_I_-31" edge="1">
          <mxGeometry relative="1" as="geometry" />
        </mxCell>
        <mxCell id="QwIVnnNlFT-l4NOjK_I_-23" value="can afford?" style="rhombus;whiteSpace=wrap;html=1;shadow=0;fontFamily=Helvetica;fontSize=10;align=center;strokeWidth=1;spacing=6;spacingTop=-4;" parent="WIyWlLk6GJQsqaUBKTNV-1" vertex="1">
          <mxGeometry x="430" y="1100" width="100" height="80" as="geometry" />
        </mxCell>
        <mxCell id="QwIVnnNlFT-l4NOjK_I_-27" style="edgeStyle=orthogonalEdgeStyle;rounded=0;orthogonalLoop=1;jettySize=auto;html=1;endArrow=classic;endFill=1;" parent="WIyWlLk6GJQsqaUBKTNV-1" source="QwIVnnNlFT-l4NOjK_I_-25" target="FMDktdwsjYTPo5hwzyfy-14" edge="1">
          <mxGeometry relative="1" as="geometry">
            <Array as="points">
              <mxPoint x="480" y="920" />
            </Array>
          </mxGeometry>
        </mxCell>
        <mxCell id="QwIVnnNlFT-l4NOjK_I_-25" value="&lt;div&gt;inform &lt;br&gt;&lt;/div&gt;&lt;div&gt;user that they can&#39;t&lt;/div&gt;&lt;div&gt; afford&lt;br&gt;&lt;/div&gt;" style="shape=parallelogram;perimeter=parallelogramPerimeter;whiteSpace=wrap;html=1;fixedSize=1;fontSize=10;" parent="WIyWlLk6GJQsqaUBKTNV-1" vertex="1">
          <mxGeometry x="420" y="940" width="120" height="60" as="geometry" />
        </mxCell>
        <mxCell id="QwIVnnNlFT-l4NOjK_I_-38" style="edgeStyle=orthogonalEdgeStyle;rounded=0;orthogonalLoop=1;jettySize=auto;html=1;endArrow=classic;endFill=1;" parent="WIyWlLk6GJQsqaUBKTNV-1" source="QwIVnnNlFT-l4NOjK_I_-31" target="QwIVnnNlFT-l4NOjK_I_-32" edge="1">
          <mxGeometry relative="1" as="geometry" />
        </mxCell>
        <mxCell id="QwIVnnNlFT-l4NOjK_I_-31" value="&lt;div&gt;withdraw total cost from balance&lt;br&gt;&lt;/div&gt;" style="rounded=1;whiteSpace=wrap;html=1;" parent="WIyWlLk6GJQsqaUBKTNV-1" vertex="1">
          <mxGeometry x="420" y="1240" width="120" height="60" as="geometry" />
        </mxCell>
        <mxCell id="QwIVnnNlFT-l4NOjK_I_-32" value="&lt;div&gt;add shoppingcart&lt;/div&gt;&lt;div&gt;items &lt;br&gt;&lt;/div&gt;&lt;div&gt;to hospital items&lt;br&gt;&lt;/div&gt;" style="rounded=1;whiteSpace=wrap;html=1;" parent="WIyWlLk6GJQsqaUBKTNV-1" vertex="1">
          <mxGeometry x="420" y="1390" width="120" height="60" as="geometry" />
        </mxCell>
        <mxCell id="9IUY6pW5Jq0thiJMLmAM-6" style="edgeStyle=orthogonalEdgeStyle;rounded=0;orthogonalLoop=1;jettySize=auto;html=1;" parent="WIyWlLk6GJQsqaUBKTNV-1" source="I7iAI7oBFa5zMu84nfNV-16" edge="1">
          <mxGeometry relative="1" as="geometry">
            <mxPoint x="760" y="1185" as="sourcePoint" />
            <Array as="points">
              <mxPoint x="760" y="1155" />
              <mxPoint x="760" y="2080" />
              <mxPoint x="-900" y="2080" />
              <mxPoint x="-900" y="370" />
            </Array>
            <mxPoint x="-60" y="370" as="targetPoint" />
          </mxGeometry>
        </mxCell>
        <mxCell id="9IUY6pW5Jq0thiJMLmAM-10" value="back" style="edgeLabel;html=1;align=center;verticalAlign=middle;resizable=0;points=[];" parent="9IUY6pW5Jq0thiJMLmAM-6" vertex="1" connectable="0">
          <mxGeometry x="-0.9747" y="1" relative="1" as="geometry">
            <mxPoint as="offset" />
          </mxGeometry>
        </mxCell>
        <mxCell id="9IUY6pW5Jq0thiJMLmAM-13" style="edgeStyle=orthogonalEdgeStyle;rounded=0;orthogonalLoop=1;jettySize=auto;html=1;" parent="WIyWlLk6GJQsqaUBKTNV-1" source="9IUY6pW5Jq0thiJMLmAM-7" target="9IUY6pW5Jq0thiJMLmAM-11" edge="1">
          <mxGeometry relative="1" as="geometry">
            <Array as="points">
              <mxPoint x="1180" y="970" />
            </Array>
          </mxGeometry>
        </mxCell>
        <mxCell id="9IUY6pW5Jq0thiJMLmAM-7" value="&lt;div&gt;remove selected user&lt;/div&gt;&lt;div&gt;from list&lt;br&gt;&lt;/div&gt;" style="rounded=1;whiteSpace=wrap;html=1;" parent="WIyWlLk6GJQsqaUBKTNV-1" vertex="1">
          <mxGeometry x="1120" y="1125" width="120" height="60" as="geometry" />
        </mxCell>
        <mxCell id="9IUY6pW5Jq0thiJMLmAM-12" style="edgeStyle=orthogonalEdgeStyle;rounded=0;orthogonalLoop=1;jettySize=auto;html=1;" parent="WIyWlLk6GJQsqaUBKTNV-1" source="9IUY6pW5Jq0thiJMLmAM-11" target="I7iAI7oBFa5zMu84nfNV-15" edge="1">
          <mxGeometry relative="1" as="geometry" />
        </mxCell>
        <mxCell id="9IUY6pW5Jq0thiJMLmAM-11" value="Admin menu" style="rounded=1;whiteSpace=wrap;html=1;" parent="WIyWlLk6GJQsqaUBKTNV-1" vertex="1">
          <mxGeometry x="920" y="930" width="120" height="60" as="geometry" />
        </mxCell>
        <mxCell id="9IUY6pW5Jq0thiJMLmAM-18" style="edgeStyle=orthogonalEdgeStyle;rounded=0;orthogonalLoop=1;jettySize=auto;html=1;" parent="WIyWlLk6GJQsqaUBKTNV-1" source="9IUY6pW5Jq0thiJMLmAM-14" target="9IUY6pW5Jq0thiJMLmAM-11" edge="1">
          <mxGeometry relative="1" as="geometry">
            <Array as="points">
              <mxPoint x="1290" y="1250" />
              <mxPoint x="1290" y="960" />
            </Array>
          </mxGeometry>
        </mxCell>
        <mxCell id="9IUY6pW5Jq0thiJMLmAM-14" value="&lt;div&gt;create new user&lt;/div&gt;&lt;div&gt;from field values&lt;br&gt;&lt;/div&gt;" style="rounded=1;whiteSpace=wrap;html=1;" parent="WIyWlLk6GJQsqaUBKTNV-1" vertex="1">
          <mxGeometry x="1121" y="1220" width="120" height="60" as="geometry" />
        </mxCell>
        <mxCell id="PGZs-xxjdeKcP7TGmokP-8" style="edgeStyle=orthogonalEdgeStyle;rounded=0;orthogonalLoop=1;jettySize=auto;html=1;" parent="WIyWlLk6GJQsqaUBKTNV-1" source="PGZs-xxjdeKcP7TGmokP-1" target="y11WNSYkZFv8qLSEC6Jq-0" edge="1">
          <mxGeometry relative="1" as="geometry">
            <Array as="points">
              <mxPoint x="-660" y="1510" />
              <mxPoint x="-660" y="1510" />
            </Array>
          </mxGeometry>
        </mxCell>
        <mxCell id="PGZs-xxjdeKcP7TGmokP-1" value="&lt;div&gt;Operate on&lt;/div&gt;input" style="rhombus;whiteSpace=wrap;html=1;shadow=0;fontFamily=Helvetica;fontSize=10;align=center;strokeWidth=1;spacing=6;spacingTop=-4;" parent="WIyWlLk6GJQsqaUBKTNV-1" vertex="1">
          <mxGeometry x="-610" y="1470" width="100" height="80" as="geometry" />
        </mxCell>
        <mxCell id="PGZs-xxjdeKcP7TGmokP-5" value="true" style="edgeStyle=orthogonalEdgeStyle;rounded=0;orthogonalLoop=1;jettySize=auto;html=1;" parent="WIyWlLk6GJQsqaUBKTNV-1" source="PGZs-xxjdeKcP7TGmokP-2" target="PGZs-xxjdeKcP7TGmokP-1" edge="1">
          <mxGeometry x="-0.2727" relative="1" as="geometry">
            <mxPoint as="offset" />
          </mxGeometry>
        </mxCell>
        <mxCell id="PGZs-xxjdeKcP7TGmokP-6" style="edgeStyle=orthogonalEdgeStyle;rounded=0;orthogonalLoop=1;jettySize=auto;html=1;" parent="WIyWlLk6GJQsqaUBKTNV-1" source="PGZs-xxjdeKcP7TGmokP-2" target="y11WNSYkZFv8qLSEC6Jq-18" edge="1">
          <mxGeometry relative="1" as="geometry">
            <Array as="points">
              <mxPoint x="-280" y="1330" />
              <mxPoint x="-280" y="920" />
            </Array>
          </mxGeometry>
        </mxCell>
        <mxCell id="PGZs-xxjdeKcP7TGmokP-7" value="false" style="edgeLabel;html=1;align=center;verticalAlign=middle;resizable=0;points=[];" parent="PGZs-xxjdeKcP7TGmokP-6" vertex="1" connectable="0">
          <mxGeometry x="-0.8847" y="-1" relative="1" as="geometry">
            <mxPoint as="offset" />
          </mxGeometry>
        </mxCell>
        <mxCell id="PGZs-xxjdeKcP7TGmokP-2" value="&lt;div&gt;Conirm&lt;/div&gt;&lt;div&gt;booking?&lt;br&gt;&lt;/div&gt;" style="shape=parallelogram;perimeter=parallelogramPerimeter;whiteSpace=wrap;html=1;fixedSize=1;fontSize=10;" parent="WIyWlLk6GJQsqaUBKTNV-1" vertex="1">
          <mxGeometry x="-620" y="1300" width="120" height="60" as="geometry" />
        </mxCell>
        <mxCell id="PGZs-xxjdeKcP7TGmokP-12" style="edgeStyle=orthogonalEdgeStyle;rounded=0;orthogonalLoop=1;jettySize=auto;html=1;" parent="WIyWlLk6GJQsqaUBKTNV-1" source="PGZs-xxjdeKcP7TGmokP-9" target="y11WNSYkZFv8qLSEC6Jq-18" edge="1">
          <mxGeometry relative="1" as="geometry">
            <Array as="points">
              <mxPoint x="-690" y="920" />
            </Array>
          </mxGeometry>
        </mxCell>
        <mxCell id="PGZs-xxjdeKcP7TGmokP-9" value="add item to List&amp;lt;Item&amp;gt;" style="rounded=1;whiteSpace=wrap;html=1;" parent="WIyWlLk6GJQsqaUBKTNV-1" vertex="1">
          <mxGeometry x="-750" y="1000" width="120" height="60" as="geometry" />
        </mxCell>
        <mxCell id="IKRyVrBYdVtoieGqFptR-11" value="false" style="edgeStyle=orthogonalEdgeStyle;rounded=0;orthogonalLoop=1;jettySize=auto;html=1;" edge="1" parent="WIyWlLk6GJQsqaUBKTNV-1" source="IKRyVrBYdVtoieGqFptR-0" target="FMDktdwsjYTPo5hwzyfy-66">
          <mxGeometry x="-0.8093" relative="1" as="geometry">
            <Array as="points">
              <mxPoint x="215" y="410" />
            </Array>
            <mxPoint as="offset" />
          </mxGeometry>
        </mxCell>
        <mxCell id="IKRyVrBYdVtoieGqFptR-12" style="edgeStyle=orthogonalEdgeStyle;rounded=0;orthogonalLoop=1;jettySize=auto;html=1;" edge="1" parent="WIyWlLk6GJQsqaUBKTNV-1" source="IKRyVrBYdVtoieGqFptR-18" target="IKRyVrBYdVtoieGqFptR-19">
          <mxGeometry relative="1" as="geometry">
            <mxPoint x="-330" y="510" as="targetPoint" />
            <mxPoint x="-480" y="510" as="sourcePoint" />
          </mxGeometry>
        </mxCell>
        <mxCell id="IKRyVrBYdVtoieGqFptR-17" value="true" style="edgeStyle=orthogonalEdgeStyle;rounded=0;orthogonalLoop=1;jettySize=auto;html=1;endArrow=none;endFill=0;" edge="1" parent="WIyWlLk6GJQsqaUBKTNV-1" source="IKRyVrBYdVtoieGqFptR-0" target="IKRyVrBYdVtoieGqFptR-18">
          <mxGeometry relative="1" as="geometry">
            <mxPoint x="-360" y="510" as="targetPoint" />
          </mxGeometry>
        </mxCell>
        <mxCell id="IKRyVrBYdVtoieGqFptR-0" value="Any&amp;nbsp; patient need critical medical attention?" style="rhombus;whiteSpace=wrap;html=1;shadow=0;fontFamily=Helvetica;fontSize=10;align=center;strokeWidth=1;spacing=6;spacingTop=-4;" vertex="1" parent="WIyWlLk6GJQsqaUBKTNV-1">
          <mxGeometry x="150" y="460" width="130" height="100" as="geometry" />
        </mxCell>
        <mxCell id="IKRyVrBYdVtoieGqFptR-7" value="false" style="edgeStyle=orthogonalEdgeStyle;rounded=0;orthogonalLoop=1;jettySize=auto;html=1;" edge="1" parent="WIyWlLk6GJQsqaUBKTNV-1" source="IKRyVrBYdVtoieGqFptR-5" target="FMDktdwsjYTPo5hwzyfy-52">
          <mxGeometry relative="1" as="geometry" />
        </mxCell>
        <mxCell id="IKRyVrBYdVtoieGqFptR-8" style="edgeStyle=orthogonalEdgeStyle;rounded=0;orthogonalLoop=1;jettySize=auto;html=1;" edge="1" parent="WIyWlLk6GJQsqaUBKTNV-1" source="IKRyVrBYdVtoieGqFptR-5" target="IKRyVrBYdVtoieGqFptR-0">
          <mxGeometry relative="1" as="geometry" />
        </mxCell>
        <mxCell id="IKRyVrBYdVtoieGqFptR-9" value="true" style="edgeLabel;html=1;align=center;verticalAlign=middle;resizable=0;points=[];" vertex="1" connectable="0" parent="IKRyVrBYdVtoieGqFptR-8">
          <mxGeometry x="-0.1964" y="1" relative="1" as="geometry">
            <mxPoint y="-1" as="offset" />
          </mxGeometry>
        </mxCell>
        <mxCell id="IKRyVrBYdVtoieGqFptR-5" value="Is user a doctor?" style="rhombus;whiteSpace=wrap;html=1;shadow=0;fontFamily=Helvetica;fontSize=10;align=center;strokeWidth=1;spacing=6;spacingTop=-4;" vertex="1" parent="WIyWlLk6GJQsqaUBKTNV-1">
          <mxGeometry x="-50" y="470" width="100" height="80" as="geometry" />
        </mxCell>
        <mxCell id="IKRyVrBYdVtoieGqFptR-14" value="false" style="edgeStyle=orthogonalEdgeStyle;rounded=0;orthogonalLoop=1;jettySize=auto;html=1;endArrow=none;endFill=0;" edge="1" parent="WIyWlLk6GJQsqaUBKTNV-1" source="IKRyVrBYdVtoieGqFptR-13">
          <mxGeometry x="-0.9111" relative="1" as="geometry">
            <mxPoint x="210" y="410" as="targetPoint" />
            <Array as="points">
              <mxPoint x="650" y="410" />
            </Array>
            <mxPoint as="offset" />
          </mxGeometry>
        </mxCell>
        <mxCell id="IKRyVrBYdVtoieGqFptR-24" style="edgeStyle=orthogonalEdgeStyle;rounded=0;orthogonalLoop=1;jettySize=auto;html=1;endArrow=classic;endFill=1;" edge="1" parent="WIyWlLk6GJQsqaUBKTNV-1" source="IKRyVrBYdVtoieGqFptR-13" target="IKRyVrBYdVtoieGqFptR-23">
          <mxGeometry relative="1" as="geometry" />
        </mxCell>
        <mxCell id="IKRyVrBYdVtoieGqFptR-13" value="operate on input" style="rhombus;whiteSpace=wrap;html=1;shadow=0;fontFamily=Helvetica;fontSize=10;align=center;strokeWidth=1;spacing=6;spacingTop=-4;" vertex="1" parent="WIyWlLk6GJQsqaUBKTNV-1">
          <mxGeometry x="600" y="470" width="100" height="80" as="geometry" />
        </mxCell>
        <mxCell id="IKRyVrBYdVtoieGqFptR-18" value="&lt;div&gt;Does user want to &lt;br&gt;&lt;/div&gt;&lt;div&gt;help?&lt;br&gt;&lt;/div&gt;" style="shape=parallelogram;perimeter=parallelogramPerimeter;whiteSpace=wrap;html=1;fixedSize=1;fontSize=10;" vertex="1" parent="WIyWlLk6GJQsqaUBKTNV-1">
          <mxGeometry x="320" y="480" width="120" height="60" as="geometry" />
        </mxCell>
        <mxCell id="IKRyVrBYdVtoieGqFptR-20" style="edgeStyle=orthogonalEdgeStyle;rounded=0;orthogonalLoop=1;jettySize=auto;html=1;endArrow=none;endFill=0;" edge="1" parent="WIyWlLk6GJQsqaUBKTNV-1" source="IKRyVrBYdVtoieGqFptR-19" target="IKRyVrBYdVtoieGqFptR-13">
          <mxGeometry relative="1" as="geometry" />
        </mxCell>
        <mxCell id="IKRyVrBYdVtoieGqFptR-19" value="input" style="shape=parallelogram;perimeter=parallelogramPerimeter;whiteSpace=wrap;html=1;fixedSize=1;fontSize=10;" vertex="1" parent="WIyWlLk6GJQsqaUBKTNV-1">
          <mxGeometry x="450" y="480" width="120" height="60" as="geometry" />
        </mxCell>
        <mxCell id="IKRyVrBYdVtoieGqFptR-25" style="edgeStyle=orthogonalEdgeStyle;rounded=0;orthogonalLoop=1;jettySize=auto;html=1;endArrow=classic;endFill=1;" edge="1" parent="WIyWlLk6GJQsqaUBKTNV-1" source="IKRyVrBYdVtoieGqFptR-23" target="FMDktdwsjYTPo5hwzyfy-66">
          <mxGeometry relative="1" as="geometry">
            <Array as="points">
              <mxPoint x="840" y="400" />
            </Array>
          </mxGeometry>
        </mxCell>
        <mxCell id="IKRyVrBYdVtoieGqFptR-23" value="&lt;div&gt;Schedule booking&lt;/div&gt;&lt;div&gt;with user and&lt;/div&gt;&lt;div&gt;patient&lt;br&gt;&lt;/div&gt;" style="rounded=1;whiteSpace=wrap;html=1;" vertex="1" parent="WIyWlLk6GJQsqaUBKTNV-1">
          <mxGeometry x="780" y="480" width="120" height="60" as="geometry" />
        </mxCell>
      </root>
    </mxGraphModel>
  </diagram>
</mxfile>
